<?xml version="1.0" encoding="UTF-8" standalone="no"?>
<!-- Uploaded to: SVG Repo, www.svgrepo.com, Generator: SVG Repo Mixer Tools -->

<svg
   fill="#000000"
   height="800px"
   width="800px"
   version="1.1"
   id="Layer_1"
   viewBox="0 0 64 64"
   enable-background="new 0 0 64 64"
   xml:space="preserve"
   sodipodi:docname="virtual_printer.svg"
   inkscape:export-filename="/home/thomc/Desktop/fujinet_for_atari_users/figs/virtual_printer.png"
   inkscape:export-xdpi="96"
   inkscape:export-ydpi="96"
   inkscape:version="1.1.2 (0a00cf5339, 2022-02-04)"
   xmlns:inkscape="http://www.inkscape.org/namespaces/inkscape"
   xmlns:sodipodi="http://sodipodi.sourceforge.net/DTD/sodipodi-0.dtd"
   xmlns="http://www.w3.org/2000/svg"
   xmlns:svg="http://www.w3.org/2000/svg"><defs
   id="defs894"><marker
     style="overflow:visible;"
     id="Arrow2Lend"
     refX="0.0"
     refY="0.0"
     orient="auto"
     inkscape:stockid="Arrow2Lend"
     inkscape:isstock="true"><path
       transform="scale(1.1) rotate(180) translate(1,0)"
       d="M 8.7185878,4.0337352 L -2.2072895,0.016013256 L 8.7185884,-4.0017078 C 6.9730900,-1.6296469 6.9831476,1.6157441 8.7185878,4.0337352 z "
       style="stroke:context-stroke;fill-rule:evenodd;fill:context-stroke;stroke-width:0.62500000;stroke-linejoin:round;"
       id="path1199" /></marker><marker
     style="overflow:visible;"
     id="Arrow1Lend"
     refX="0.0"
     refY="0.0"
     orient="auto"
     inkscape:stockid="Arrow1Lend"
     inkscape:isstock="true"><path
       transform="scale(0.8) rotate(180) translate(12.5,0)"
       style="fill-rule:evenodd;fill:context-stroke;stroke:context-stroke;stroke-width:1.0pt;"
       d="M 0.0,0.0 L 5.0,-5.0 L -12.5,0.0 L 5.0,5.0 L 0.0,0.0 z "
       id="path1181" /></marker></defs><sodipodi:namedview
   id="namedview892"
   pagecolor="#ffffff"
   bordercolor="#666666"
   borderopacity="1.0"
   inkscape:pageshadow="2"
   inkscape:pageopacity="0.0"
   inkscape:pagecheckerboard="0"
   showgrid="false"
   inkscape:zoom="0.70533901"
   inkscape:cx="399.80774"
   inkscape:cy="399.80774"
   inkscape:window-width="1920"
   inkscape:window-height="1008"
   inkscape:window-x="1080"
   inkscape:window-y="674"
   inkscape:window-maximized="1"
   inkscape:current-layer="Layer_1" />

<flowRoot
   style="font-style:normal;font-weight:normal;font-size:40px;line-height:1;font-family:sans-serif;letter-spacing:0px;word-spacing:0px;fill:#000000;fill-opacity:1;stroke:none"
   id="flowRoot2394"
   xml:space="preserve"
   transform="matrix(0.3023622,0,0,0.3023622,14.625786,-24.262837)"><flowRegion
     id="flowRegion2396"><rect
       y="-69.714287"
       x="-205.71428"
       height="954.28571"
       width="1137.1428"
       id="rect2398" /></flowRegion><flowPara
     id="flowPara2400" /></flowRoot><g
   id="g11472"
   transform="matrix(0.60924729,0,0,0.60924729,24.06179,-6.7111965)"><g
     id="Printer"
     transform="matrix(0.29876216,0,0,0.29876216,41.687539,12.90608)">
	<path
   d="M 57.788101,14.03125 H 52.5 v -8.0625 c 0,-2.2091999 -1.790901,-4 -4,-4 h -33 c -2.2092,0 -4,1.7908001 -4,4 v 8.0625 H 6.2119002 C 2.7871001,14.03125 0,16.81835 0,20.243151 v 26.270498 c 0,3.424801 2.7871001,6.211903 6.2119002,6.211903 h 2.3798995 c 0.5527,0 1,-0.447201 1,-1 0,-0.5527 -0.4473,-1 -1,-1 H 6.2119002 C 3.8896,50.725552 2,48.835949 2,46.513649 V 20.243151 C 2,17.920851 3.8896,16.03125 6.2119002,16.03125 H 57.788103 C 60.110298,16.03125 62,17.920851 62,20.243151 v 26.270498 c 0,2.3223 -1.889702,4.211903 -4.211899,4.211903 H 56 c -0.552799,0 -1,0.4473 -1,1 0,0.552799 0.447201,1 1,1 h 1.788101 C 61.212898,52.725552 64,49.93845 64,46.513649 V 20.243151 C 64,16.81835 61.212898,14.03125 57.788101,14.03125 Z M 13.5,5.96875 c 0,-1.1027999 0.8972,-2 2,-2 h 33 c 1.102798,0 2,0.8972001 2,2 v 8 h -37 z"
   id="path876" />
	<path
   d="M 44,45.032249 H 20 c -0.5518,0 -0.999001,0.447201 -0.999001,0.999001 0,0.5518 0.447201,0.999 0.999001,0.999 h 24 c 0.551701,0 0.999,-0.4472 0.999,-0.999 0,-0.5518 -0.447299,-0.999001 -0.999,-0.999001 z"
   id="path878" />
	<path
   d="M 44,52.032249 H 20 c -0.5518,0 -0.999001,0.447201 -0.999001,0.999001 0,0.5518 0.447201,0.999 0.999001,0.999 h 24 c 0.551701,0 0.999,-0.4472 0.999,-0.999 0,-0.5518 -0.447299,-0.999001 -0.999,-0.999001 z"
   id="path880" />
	<circle
   cx="7.9590998"
   cy="21.840549"
   r="2"
   id="circle882" />
	<circle
   cx="14.2857"
   cy="21.840549"
   r="2"
   id="circle884" />
	<circle
   cx="20.6122"
   cy="21.840549"
   r="2"
   id="circle886" />
	<path
   d="m 11,62.03125 h 42 v -26 H 11 Z M 13.4037,38.434952 H 50.596296 V 59.627548 H 13.4037 Z"
   id="path888" />
</g><g
     style="fill:#000000"
     id="g1038"
     transform="matrix(0.02960727,0,0,0.02960727,17.928745,15.021579)"><g
       id="g1027">
	<path
   d="m 142.024,310.194 c 0,-8.007 -5.556,-12.782 -15.359,-12.782 -4.003,0 -6.714,0.395 -8.132,0.773 v 25.69 c 1.679,0.378 3.743,0.504 6.588,0.504 10.449,0 16.903,-5.279 16.903,-14.185 z"
   id="path1021" />
	<path
   d="m 202.709,297.681 c -4.39,0 -7.227,0.379 -8.905,0.772 v 56.896 c 1.679,0.394 4.39,0.394 6.841,0.394 17.809,0.126 29.424,-9.677 29.424,-30.449 0.126,-18.063 -10.458,-27.613 -27.36,-27.613 z"
   id="path1023" />
	<path
   d="M 315.458,0 H 121.811 C 93.521,0 70.496,23.041 70.496,51.315 v 189.754 h -5.012 c -11.418,0 -20.678,9.251 -20.678,20.679 v 125.404 c 0,11.427 9.259,20.677 20.678,20.677 h 5.012 v 22.995 c 0,28.305 23.025,51.315 51.315,51.315 h 264.223 c 28.272,0 51.3,-23.011 51.3,-51.315 V 121.449 Z M 99.053,284.379 c 6.06,-1.024 14.578,-1.796 26.579,-1.796 12.128,0 20.772,2.315 26.58,6.965 5.548,4.382 9.292,11.615 9.292,20.127 0,8.51 -2.837,15.745 -7.999,20.646 -6.714,6.32 -16.643,9.157 -28.258,9.157 -2.585,0 -4.902,-0.128 -6.714,-0.379 v 31.096 H 99.053 Z M 386.034,450.713 H 121.811 c -10.954,0 -19.874,-8.92 -19.874,-19.889 v -22.995 h 246.31 c 11.42,0 20.679,-9.25 20.679,-20.677 V 261.748 c 0,-11.428 -9.259,-20.679 -20.679,-20.679 H 101.937 V 51.315 c 0,-10.938 8.921,-19.858 19.874,-19.858 l 181.89,-0.19 V 98.5 c 0,19.638 15.934,35.587 35.587,35.587 l 65.862,-0.189 0.741,296.925 c 0,10.97 -8.904,19.89 -19.857,19.89 z M 174.065,369.801 v -85.422 c 7.225,-1.15 16.642,-1.796 26.58,-1.796 16.516,0 27.226,2.963 35.618,9.282 9.031,6.714 14.704,17.416 14.704,32.781 0,16.643 -6.06,28.133 -14.453,35.224 -9.157,7.612 -23.096,11.222 -40.125,11.222 -10.198,0 -17.423,-0.646 -22.324,-1.291 z m 140.827,-50.575 v 15.996 h -31.23 v 34.973 h -19.74 v -86.966 h 53.16 v 16.122 h -33.42 v 19.875 z"
   id="path1025" />
</g></g><path
     style="fill:none;stroke:#000000;stroke-width:0.302362;stroke-linecap:butt;stroke-linejoin:miter;stroke-miterlimit:4;stroke-dasharray:none;stroke-opacity:1;marker-end:url(#Arrow2Lend)"
     d="m 31.710213,22.240632 h 8.603108"
     id="path1077" /><path
     style="fill:none;stroke:#000000;stroke-width:0.302362;stroke-linecap:butt;stroke-linejoin:miter;stroke-miterlimit:4;stroke-dasharray:none;stroke-opacity:1;marker-end:url(#Arrow2Lend)"
     d="M 8.2073151,22.16752 H 16.810423"
     id="path1454" /><g
     id="g7002"
     transform="matrix(1.3548172,0,0,1.3548172,-13.457903,-6.5800096)"><path
       d="m -7.8820173,15.518884 c -0.02203,0.0077 -0.05937,0.02394 -0.0814,0.03735 -0.02298,0.01341 -0.596616,0.580335 -1.276546,1.260266 l -1.2353677,1.236325 -0.81879,-0.816874 c -0.872418,-0.871461 -0.837942,-0.839858 -0.927961,-0.839858 -0.06608,0 -0.13886,0.04884 -0.174292,0.116833 -0.02203,0.04309 -0.02394,0.119706 -0.0038,0.168546 0.01053,0.0249 0.243243,0.263353 0.77378,0.794849 l 0.758458,0.758457 h -2.121192 c -1.370396,0 -2.148965,0.0038 -2.198762,0.0096 -0.11013,0.01436 -0.179081,0.03352 -0.270057,0.07661 -0.09672,0.04597 -0.148436,0.0814 -0.226005,0.154182 -0.109172,0.101511 -0.19153,0.24037 -0.237497,0.397424 l -0.02203,0.07565 -0.0029,2.987865 c -0.0019,3.286651 -0.0058,3.07118 0.05554,3.230149 0.04597,0.118749 0.09385,0.191531 0.191529,0.290168 0.09864,0.0996 0.180038,0.154182 0.300702,0.201106 0.158012,0.06129 -0.291125,0.0565 5.5792628,0.0565 5.8703879,0 5.4212509,0.0048 5.5792629,-0.0565 0.116833,-0.04597 0.203021,-0.102468 0.296871,-0.196317 0.09385,-0.09385 0.150351,-0.180039 0.196318,-0.296872 0.06033,-0.155139 0.0565,0.05171 0.0565,-3.193759 -9.69e-4,-2.42764 -0.0029,-2.967754 -0.01341,-3.027128 -0.05937,-0.330389 -0.296872,-0.587039 -0.627261,-0.678973 l -0.09193,-0.0249 -2.83464,-0.0029 -2.8346417,-0.0019 1.1941887,-1.195146 c 0.98159,-0.98159 1.198019,-1.203765 1.220045,-1.246859 0.03543,-0.06895 0.03926,-0.174292 0.0077,-0.216429 -0.04788,-0.06416 -0.125452,-0.08523 -0.211641,-0.05746 z m 0.552563,3.581607 c 0.247074,0.04022 0.46446,0.170462 0.618642,0.371568 0.09098,0.117791 0.164715,0.293041 0.185784,0.443391 0.0077,0.05459 0.0096,0.649286 0.0077,2.106828 l -0.0029,2.030216 -0.02203,0.0814 c -0.01245,0.04501 -0.04214,0.124494 -0.06799,0.177165 -0.12641,0.264311 -0.344754,0.444349 -0.633964,0.523834 l -0.08044,0.02203 h -3.4858557 -3.485842 l -0.07853,-0.02107 c -0.180996,-0.04788 -0.311236,-0.121621 -0.438603,-0.247073 -0.180996,-0.177165 -0.2691,-0.366779 -0.292083,-0.622472 -0.01245,-0.142689 -0.01245,-3.842087 0,-3.984777 0.04022,-0.450095 0.358161,-0.800594 0.797721,-0.880079 0.105342,-0.01915 6.8615547,-0.02011 6.9783877,-9.48e-4 z m 2.249518,1.638537 c 0.196318,0.04692 0.367737,0.219302 0.412746,0.41562 0.01628,0.06799 0.01628,0.183869 9.69e-4,0.249946 -0.04692,0.200149 -0.208767,0.365822 -0.407958,0.416578 -0.07278,0.0182 -0.204937,0.0182 -0.276761,0 -0.145565,-0.03831 -0.289213,-0.152266 -0.353375,-0.282507 -0.132156,-0.263353 -0.0498,-0.568843 0.19536,-0.727813 0.05363,-0.03448 0.142691,-0.06991 0.200149,-0.07949 0.0565,-0.0096 0.172377,-0.0057 0.228878,0.0077 z m -0.01628,1.384761 c 0.155139,0.0316 0.315066,0.155139 0.383059,0.295913 0.04501,0.09289 0.05937,0.157055 0.05746,0.263354 -9.7e-4,0.153224 -0.05937,0.282506 -0.176207,0.393593 -0.108215,0.102469 -0.235582,0.150351 -0.391679,0.149394 -0.355287,-0.0038 -0.61481,-0.346669 -0.525749,-0.695253 0.03831,-0.150351 0.133113,-0.271973 0.275803,-0.353373 0.09768,-0.05459 0.259523,-0.07757 0.377314,-0.05363 z"
       id="path1502"
       style="fill:#000000;stroke:none;stroke-width:0.000957651" /><text
       xml:space="preserve"
       style="font-style:normal;font-weight:normal;font-size:1.06326px;line-height:1.25;font-family:sans-serif;fill:#000000;fill-opacity:1;stroke:none;stroke-width:0.0265815"
       x="-13.061192"
       y="21.531475"
       id="text2660"><tspan
         sodipodi:role="line"
         id="tspan2658"
         style="font-style:normal;font-variant:normal;font-weight:normal;font-stretch:normal;font-family:'Arcade Normal';-inkscape-font-specification:'Arcade Normal, ';stroke-width:0.0265815"
         x="-13.061192"
         y="21.531475">PRINT</tspan><tspan
         sodipodi:role="line"
         style="font-style:normal;font-variant:normal;font-weight:normal;font-stretch:normal;font-family:'Arcade Normal';-inkscape-font-specification:'Arcade Normal, ';stroke-width:0.0265815"
         x="-13.061192"
         y="22.985886"
         id="tspan2662">SHOP</tspan></text></g><path
     style="fill:none;stroke:#000000;stroke-width:0.302362;stroke-linecap:butt;stroke-linejoin:miter;stroke-miterlimit:4;stroke-dasharray:none;stroke-opacity:1;marker-end:url(#Arrow2Lend)"
     d="m -17.024249,21.931541 h 8.6031078"
     id="path10830" /><g
     transform="matrix(0.3023622,0,0,0.3023622,-33.939793,-31.186983)"
     id="layer1"
     inkscape:label="Layer 1"><flowRoot
       style="font-style:normal;font-weight:normal;font-size:40px;line-height:1;font-family:sans-serif;letter-spacing:0px;word-spacing:0px;fill:#000000;fill-opacity:1;stroke:none"
       id="flowRoot2394-9"
       xml:space="preserve"
       transform="translate(210.71576,13.054831)"><flowRegion
         id="flowRegion2396-1"><rect
           y="-69.714287"
           x="-205.71428"
           height="954.28571"
           width="1137.1428"
           id="rect2398-2" /></flowRegion><flowPara
         id="flowPara2400-7" /></flowRoot><path
       style="fill:none;fill-opacity:1;fill-rule:evenodd;stroke:#000000;stroke-width:0.0986303;stroke-miterlimit:4;stroke-dasharray:none;stroke-opacity:1"
       d="m 103.7851,200.15693 -6.72951,-0.0521 -2.01072,-1.82296 -1.184907,-25.69432 0.19895,-0.18651 -0.0373,-1.40508 -0.273557,-0.286 -0.09947,-2.11384 0.211384,-0.18652 -0.04974,-1.41751 -0.273556,-0.17408 -0.06217,-2.13872 0.198949,-0.21138 -0.0373,-1.5543 -0.248687,-0.21138 -0.09948,-2.18845 0.186516,-0.19895 -0.04974,-1.5916 -0.28599,-0.22382 -0.03734,-2.21331 2.039237,-2.23819 36.407851,-0.0497 2.13871,2.28792 -0.0995,2.23819 -0.23625,0.0622 -0.0373,1.72838 0.19895,0.0497 -0.087,2.41227 -0.32329,0.087 -0.0373,1.5916 0.22382,0.12435 -0.087,2.25062 -0.33573,0.11191 -0.0373,1.55429 0.21138,0.12435 -0.0622,2.15115 -0.3233,0.12434 -0.0373,1.47969 0.19895,0.12434 -1.56673,26.08733 -2.03924,1.76568 -6.19463,-0.0479"
       id="path1686"
       inkscape:connector-curvature="0"
       sodipodi:nodetypes="cccccccccccccccccccccccccccccccccccccccccc" /><path
       style="opacity:0.97;fill:none;fill-opacity:1;fill-rule:evenodd;stroke:#000000;stroke-width:0.399;stroke-miterlimit:4;stroke-dasharray:none;stroke-opacity:1"
       d="m 103.97584,199.14653 -7.28663,-0.002 0.36639,0.96025 -0.36639,-0.96025 -1.64434,-0.86271 1.64434,0.86271 -1.828829,-42.91586 -1.758945,0.0574 1.753247,-0.0559 0.28599,-2.18224 -0.28599,2.18224 37.135267,-0.0249 -0.44142,-2.2071 0.4352,2.2071 1.70351,0.0808 -1.70351,-0.0808 -2.35807,43.01845 1.62444,-0.63588 -1.62444,0.63588 -0.4148,1.1298 0.42359,-1.1298 -6.77972,0.0273"
       id="path1688"
       inkscape:connector-curvature="0"
       sodipodi:nodetypes="cccccccccccccccccccccc" /><g
       id="g2091"
       transform="matrix(0.37218984,0,0,0.37218984,74.250923,126.12157)"><path
         inkscape:connector-curvature="0"
         id="path1690"
         d="m 51.5162,87.59432 4.126874,-0.313835 0.20454,4.755893 -4.197778,-0.165743 z"
         style="opacity:1;fill:#525252;fill-opacity:1;fill-rule:evenodd;stroke:#000000;stroke-width:0.265;stroke-miterlimit:4;stroke-dasharray:none;stroke-opacity:1"
         sodipodi:nodetypes="ccccc" /><path
         inkscape:connector-curvature="0"
         id="path1692"
         d="m 52.084149,98.85305 4.077124,0.02999 0.16816,4.49 -4.14506,-0.34394 z"
         style="opacity:1;fill:#525252;fill-opacity:1;fill-rule:evenodd;stroke:#000000;stroke-width:0.265;stroke-miterlimit:4;stroke-dasharray:none;stroke-opacity:1"
         sodipodi:nodetypes="ccccc" /><path
         inkscape:connector-curvature="0"
         id="path1694"
         d="m 52.551869,109.8111 4.051975,0.1734 0.196049,4.37406 -4.114391,-0.73887 z"
         style="opacity:1;fill:#525252;fill-opacity:1;fill-rule:evenodd;stroke:#000000;stroke-width:0.265;stroke-miterlimit:4;stroke-dasharray:none;stroke-opacity:1"
         sodipodi:nodetypes="ccccc" /><path
         inkscape:connector-curvature="0"
         id="path1696"
         d="m 53.119818,120.5687 3.954783,0.33167 0.180033,4.03743 -4.034589,-0.59392 z"
         style="opacity:1;fill:#525252;fill-opacity:1;fill-rule:evenodd;stroke:#000000;stroke-width:0.265;stroke-miterlimit:4;stroke-dasharray:none;stroke-opacity:1"
         sodipodi:nodetypes="ccccc" /><path
         inkscape:connector-curvature="0"
         id="path1698"
         d="m 156.82039,124.27707 -4.09415,0.72846 0.19622,-4.24661 3.99815,-0.45749 z"
         style="opacity:1;fill:#525252;fill-opacity:1;fill-rule:evenodd;stroke:#000000;stroke-width:0.265;stroke-miterlimit:4;stroke-dasharray:none;stroke-opacity:1"
         sodipodi:nodetypes="ccccc" /><path
         inkscape:connector-curvature="0"
         id="path1700"
         d="m 157.48857,109.67747 -3.9338,0.23078 -0.26891,4.46915 4.10248,-0.52385 z"
         style="opacity:1;fill:#525252;fill-opacity:1;fill-rule:evenodd;stroke:#000000;stroke-width:0.265;stroke-miterlimit:4;stroke-dasharray:none;stroke-opacity:1"
         sodipodi:nodetypes="ccccc" /><path
         inkscape:connector-curvature="0"
         id="path1702"
         d="m 158.12333,98.719417 -3.97068,0.04494 -0.25347,4.477773 4.12393,-0.2464 z"
         style="opacity:1;fill:#525252;fill-opacity:1;fill-rule:evenodd;stroke:#000000;stroke-width:0.265;stroke-miterlimit:4;stroke-dasharray:none;stroke-opacity:1"
         sodipodi:nodetypes="ccccc" /><path
         inkscape:connector-curvature="0"
         id="path1704"
         d="m 158.69128,91.870635 -4.1706,0.0661 0.25775,-4.718482 4.01308,0.0086 z"
         style="opacity:1;fill:#525252;fill-opacity:1;fill-rule:evenodd;stroke:#000000;stroke-width:0.265;stroke-miterlimit:4;stroke-dasharray:none;stroke-opacity:1"
         sodipodi:nodetypes="ccccc" /><path
         inkscape:connector-curvature="0"
         id="path1706"
         d="m 140.81763,74.932431 0.93544,5.913336 h 5.41221 l -1.06908,-5.946745 z"
         style="opacity:1;fill:#525252;fill-opacity:1;fill-rule:evenodd;stroke:#000000;stroke-width:0.265;stroke-miterlimit:4;stroke-dasharray:none;stroke-opacity:1" /><path
         inkscape:connector-curvature="0"
         id="path1708"
         d="m 135.83974,80.812359 -0.86863,-5.913337 h -5.31198 l 0.7684,5.913337 z"
         style="opacity:1;fill:#525252;fill-opacity:1;fill-rule:evenodd;stroke:#000000;stroke-width:0.265;stroke-miterlimit:4;stroke-dasharray:none;stroke-opacity:1" /><path
         inkscape:connector-curvature="0"
         id="path1725"
         d="m 119.03516,74.899022 0.43432,5.913337 5.17834,0.06682 -0.56794,-5.980154 z"
         style="opacity:1;fill:#525252;fill-opacity:1;fill-rule:evenodd;stroke:#000000;stroke-width:0.265;stroke-miterlimit:4;stroke-dasharray:none;stroke-opacity:1" /><path
         inkscape:connector-curvature="0"
         id="path1727"
         d="m 108.24416,74.899022 -0.0334,5.946745 h 4.97789 l 0.0334,-5.913336 z"
         style="opacity:1;fill:#525252;fill-opacity:1;fill-rule:evenodd;stroke:#000000;stroke-width:0.265;stroke-miterlimit:4;stroke-dasharray:none;stroke-opacity:1" /><path
         inkscape:connector-curvature="0"
         id="path1729"
         d="m 102.19718,80.879176 0.0334,-5.946745 -5.378796,-0.03341 -0.06682,5.946745 z"
         style="opacity:1;fill:#525252;fill-opacity:1;fill-rule:evenodd;stroke:#000000;stroke-width:0.265;stroke-miterlimit:4;stroke-dasharray:none;stroke-opacity:1" /><path
         inkscape:connector-curvature="0"
         id="path1731"
         d="m 86.094196,74.96584 -0.23386,5.879927 h 5.178345 l 0.100227,-5.879927 z"
         style="opacity:1;fill:#525252;fill-opacity:1;fill-rule:evenodd;stroke:#000000;stroke-width:0.265;stroke-miterlimit:4;stroke-dasharray:none;stroke-opacity:1" /><path
         inkscape:connector-curvature="0"
         id="path1733"
         d="m 75.336597,74.932431 -0.53454,5.913336 h 5.144939 l 0.400905,-5.913336 z"
         style="opacity:1;fill:#525252;fill-opacity:1;fill-rule:evenodd;stroke:#000000;stroke-width:0.265;stroke-miterlimit:4;stroke-dasharray:none;stroke-opacity:1" /><path
         inkscape:connector-curvature="0"
         id="path1735"
         d="m 64.211503,74.999248 -0.935442,5.846519 h 5.445615 l 0.734991,-5.879927 z"
         style="opacity:1;fill:#525252;fill-opacity:1;fill-rule:evenodd;stroke:#000000;stroke-width:0.265;stroke-miterlimit:4;stroke-dasharray:none;stroke-opacity:1" /></g><circle
       style="opacity:0.98;fill:#ffffff;fill-opacity:1;fill-rule:evenodd;stroke:#000000;stroke-width:0.0986303;stroke-miterlimit:4;stroke-dasharray:none;stroke-opacity:1"
       id="path1762"
       cx="99.549362"
       cy="161.50859"
       r="0.9698813" /><circle
       style="opacity:0.98;fill:#00dbff;fill-opacity:1;fill-rule:evenodd;stroke:#000000;stroke-width:0.0986303;stroke-miterlimit:4;stroke-dasharray:none;stroke-opacity:1"
       id="path1762-6"
       cx="107.54608"
       cy="161.50859"
       r="0.9698813" /><circle
       style="opacity:0.98;fill:#ffa300;fill-opacity:1;fill-rule:evenodd;stroke:#000000;stroke-width:0.0986303;stroke-miterlimit:4;stroke-dasharray:none;stroke-opacity:1"
       id="path1762-5"
       cx="126.69629"
       cy="161.55833"
       r="0.9698813" /><g
       id="g2108"
       transform="matrix(0.37218984,0,0,0.37218984,74.250923,126.12157)"><path
         sodipodi:nodetypes="ccccccccccc"
         inkscape:connector-curvature="0"
         id="path1790"
         d="m 84.855655,177.60677 39.545755,0.18899 c 1.69427,0.0606 1.97013,1.37117 2.26786,2.55134 l 3.54353,13.41815 2.26785,16.11124 c 0.29436,1.44 -0.96859,2.45662 -3.0238,2.45684 l -49.042417,-0.42522 c -1.317667,-0.01 -3.206698,-0.39405 -2.929316,-2.50409 l 2.882069,-16.11124 2.409598,-13.89062 c 0.432547,-1.22665 1.21559,-1.69211 2.078871,-1.79539 z"
         style="opacity:1;fill:#383535;fill-opacity:1;fill-rule:evenodd;stroke:#000000;stroke-width:0.265;stroke-miterlimit:4;stroke-dasharray:none;stroke-opacity:1" /><path
         sodipodi:nodetypes="cccc"
         inkscape:connector-curvature="0"
         id="path1792"
         d="m 80.272693,193.95424 c 0.456867,-1.33262 0.953328,-1.98036 2.551338,-2.17337 l 44.790179,0.33073 c 1.44475,0.0687 1.9841,0.65253 2.59859,1.65365"
         style="opacity:0.98;fill:none;fill-opacity:1;fill-rule:evenodd;stroke:#000000;stroke-width:0.265;stroke-miterlimit:4;stroke-dasharray:none;stroke-opacity:1" /></g><circle
       r="1.0071844"
       cy="200.30383"
       cx="106.95333"
       id="path1794"
       style="fill:#000000;fill-opacity:1;fill-rule:evenodd;stroke:#000000;stroke-width:0.0986303;stroke-miterlimit:4;stroke-dasharray:none;stroke-opacity:1" /><circle
       r="0.50980937"
       cy="200.05516"
       cx="106.95333"
       id="path1796"
       style="opacity:0.98;fill:#666666;fill-opacity:1;fill-rule:evenodd;stroke:#000000;stroke-width:0.0986303;stroke-miterlimit:4;stroke-dasharray:none;stroke-opacity:1" /><circle
       r="1.0071844"
       cy="200.3287"
       cx="109.52724"
       id="path1794-9"
       style="fill:#000000;fill-opacity:1;fill-rule:evenodd;stroke:#000000;stroke-width:0.0986303;stroke-miterlimit:4;stroke-dasharray:none;stroke-opacity:1" /><circle
       r="0.50980937"
       cy="200.08003"
       cx="109.52724"
       id="path1796-0"
       style="opacity:0.98;fill:#666666;fill-opacity:1;fill-rule:evenodd;stroke:#000000;stroke-width:0.0986303;stroke-miterlimit:4;stroke-dasharray:none;stroke-opacity:1" /><circle
       r="1.0071844"
       cy="200.34114"
       cx="112.08872"
       id="path1794-6"
       style="fill:#000000;fill-opacity:1;fill-rule:evenodd;stroke:#000000;stroke-width:0.0986303;stroke-miterlimit:4;stroke-dasharray:none;stroke-opacity:1" /><circle
       r="0.50980937"
       cy="200.09247"
       cx="112.08872"
       id="path1796-3"
       style="opacity:0.98;fill:#666666;fill-opacity:1;fill-rule:evenodd;stroke:#000000;stroke-width:0.0986303;stroke-miterlimit:4;stroke-dasharray:none;stroke-opacity:1" /><circle
       r="1.0071844"
       cy="200.35358"
       cx="114.66264"
       id="path1794-1"
       style="fill:#000000;fill-opacity:1;fill-rule:evenodd;stroke:#000000;stroke-width:0.0986303;stroke-miterlimit:4;stroke-dasharray:none;stroke-opacity:1" /><circle
       r="0.50980937"
       cy="200.1049"
       cx="114.66264"
       id="path1796-5"
       style="opacity:0.98;fill:#666666;fill-opacity:1;fill-rule:evenodd;stroke:#000000;stroke-width:0.0986303;stroke-miterlimit:4;stroke-dasharray:none;stroke-opacity:1" /><circle
       r="1.0071844"
       cy="200.36601"
       cx="117.22412"
       id="path1794-65"
       style="fill:#000000;fill-opacity:1;fill-rule:evenodd;stroke:#000000;stroke-width:0.0986303;stroke-miterlimit:4;stroke-dasharray:none;stroke-opacity:1" /><circle
       r="0.50980937"
       cy="200.11732"
       cx="117.22412"
       id="path1796-08"
       style="opacity:0.98;fill:#666666;fill-opacity:1;fill-rule:evenodd;stroke:#000000;stroke-width:0.0986303;stroke-miterlimit:4;stroke-dasharray:none;stroke-opacity:1" /><circle
       r="1.0071844"
       cy="200.36601"
       cx="119.79804"
       id="path1794-2"
       style="fill:#000000;fill-opacity:1;fill-rule:evenodd;stroke:#000000;stroke-width:0.0986303;stroke-miterlimit:4;stroke-dasharray:none;stroke-opacity:1" /><circle
       r="0.50980937"
       cy="200.11732"
       cx="119.79804"
       id="path1796-2"
       style="opacity:0.98;fill:#666666;fill-opacity:1;fill-rule:evenodd;stroke:#000000;stroke-width:0.0986303;stroke-miterlimit:4;stroke-dasharray:none;stroke-opacity:1" /><circle
       r="1.0071844"
       cy="202.46742"
       cx="121.06635"
       id="path1794-91"
       style="fill:#000000;fill-opacity:1;fill-rule:evenodd;stroke:#000000;stroke-width:0.0986303;stroke-miterlimit:4;stroke-dasharray:none;stroke-opacity:1" /><circle
       r="0.50980937"
       cy="202.21873"
       cx="121.06635"
       id="path1796-04"
       style="opacity:0.98;fill:#666666;fill-opacity:1;fill-rule:evenodd;stroke:#000000;stroke-width:0.0986303;stroke-miterlimit:4;stroke-dasharray:none;stroke-opacity:1" /><circle
       r="1.0071844"
       cy="202.47986"
       cx="118.49243"
       id="path1794-7"
       style="fill:#000000;fill-opacity:1;fill-rule:evenodd;stroke:#000000;stroke-width:0.0986303;stroke-miterlimit:4;stroke-dasharray:none;stroke-opacity:1" /><circle
       r="0.50980937"
       cy="202.23117"
       cx="118.49243"
       id="path1796-4"
       style="opacity:0.98;fill:#666666;fill-opacity:1;fill-rule:evenodd;stroke:#000000;stroke-width:0.0986303;stroke-miterlimit:4;stroke-dasharray:none;stroke-opacity:1" /><circle
       r="1.0071844"
       cy="202.46742"
       cx="115.90608"
       id="path1794-28"
       style="fill:#000000;fill-opacity:1;fill-rule:evenodd;stroke:#000000;stroke-width:0.0986303;stroke-miterlimit:4;stroke-dasharray:none;stroke-opacity:1" /><circle
       r="0.50980937"
       cy="202.21873"
       cx="115.90608"
       id="path1796-03"
       style="opacity:0.98;fill:#666666;fill-opacity:1;fill-rule:evenodd;stroke:#000000;stroke-width:0.0986303;stroke-miterlimit:4;stroke-dasharray:none;stroke-opacity:1" /><circle
       r="1.0071844"
       cy="202.47986"
       cx="113.36947"
       id="path1794-0"
       style="fill:#000000;fill-opacity:1;fill-rule:evenodd;stroke:#000000;stroke-width:0.0986303;stroke-miterlimit:4;stroke-dasharray:none;stroke-opacity:1" /><circle
       r="0.50980937"
       cy="202.23117"
       cx="113.36947"
       id="path1796-34"
       style="opacity:0.98;fill:#666666;fill-opacity:1;fill-rule:evenodd;stroke:#000000;stroke-width:0.0986303;stroke-miterlimit:4;stroke-dasharray:none;stroke-opacity:1" /><circle
       r="1.0071844"
       cy="202.45499"
       cx="110.75825"
       id="path1794-74"
       style="fill:#000000;fill-opacity:1;fill-rule:evenodd;stroke:#000000;stroke-width:0.0986303;stroke-miterlimit:4;stroke-dasharray:none;stroke-opacity:1" /><circle
       r="0.50980937"
       cy="202.20631"
       cx="110.75825"
       id="path1796-25"
       style="opacity:0.98;fill:#666666;fill-opacity:1;fill-rule:evenodd;stroke:#000000;stroke-width:0.0986303;stroke-miterlimit:4;stroke-dasharray:none;stroke-opacity:1" /><circle
       r="1.0071844"
       cy="202.43011"
       cx="108.23407"
       id="path1794-4"
       style="fill:#000000;fill-opacity:1;fill-rule:evenodd;stroke:#000000;stroke-width:0.0986303;stroke-miterlimit:4;stroke-dasharray:none;stroke-opacity:1" /><circle
       r="0.50980937"
       cy="202.18144"
       cx="108.23407"
       id="path1796-38"
       style="opacity:0.98;fill:#666666;fill-opacity:1;fill-rule:evenodd;stroke:#000000;stroke-width:0.0986303;stroke-miterlimit:4;stroke-dasharray:none;stroke-opacity:1" /><circle
       r="1.0071844"
       cy="202.41768"
       cx="105.64772"
       id="path1794-8"
       style="fill:#000000;fill-opacity:1;fill-rule:evenodd;stroke:#000000;stroke-width:0.0986303;stroke-miterlimit:4;stroke-dasharray:none;stroke-opacity:1" /><circle
       r="0.50980937"
       cy="202.16901"
       cx="105.64772"
       id="path1796-9"
       style="opacity:0.98;fill:#666666;fill-opacity:1;fill-rule:evenodd;stroke:#000000;stroke-width:0.0986303;stroke-miterlimit:4;stroke-dasharray:none;stroke-opacity:1" /><g
       id="g2104"
       transform="matrix(0.37218984,0,0,0.37218984,74.250923,126.12157)"><g
         id="g2096"><path
           style="opacity:0.98;fill:#000000;fill-opacity:1;fill-rule:evenodd;stroke:#000000;stroke-width:0.265;stroke-miterlimit:4;stroke-dasharray:none;stroke-opacity:1"
           d="m 63.688988,75.009858 7.039806,0.04725 v -1.663097 c -1.787512,-1.606399 -6.055494,-1.299293 -7.06343,0 z"
           id="path1737"
           inkscape:connector-curvature="0"
           sodipodi:nodetypes="ccccc" /><path
           style="opacity:0.98;fill:#000000;fill-opacity:1;fill-rule:evenodd;stroke:#000000;stroke-width:0.265;stroke-miterlimit:4;stroke-dasharray:none;stroke-opacity:1"
           d="m 81.867614,74.804546 7.039806,0.04725 v -1.663097 c -1.787512,-1.606399 -6.055494,-1.299293 -7.06343,0 z"
           id="path1737-3"
           inkscape:connector-curvature="0"
           sodipodi:nodetypes="ccccc" /><path
           style="opacity:0.98;fill:#000000;fill-opacity:1;fill-rule:evenodd;stroke:#000000;stroke-width:0.265;stroke-miterlimit:4;stroke-dasharray:none;stroke-opacity:1"
           d="m 139.50898,74.804545 7.03981,0.04725 v -1.663097 c -1.78751,-1.606399 -6.05549,-1.299293 -7.06343,0 z"
           id="path1737-5"
           inkscape:connector-curvature="0"
           sodipodi:nodetypes="ccccc" /></g><path
         sodipodi:nodetypes="ccccc"
         inkscape:connector-curvature="0"
         id="path1760"
         d="m 53.483631,143.68341 -1.748142,0.0501 0.105468,4.26607 1.873177,-0.0196 z"
         style="opacity:0.98;fill:#000000;fill-opacity:1;fill-rule:evenodd;stroke:#000000;stroke-width:0.265;stroke-miterlimit:4;stroke-dasharray:none;stroke-opacity:1" /><path
         sodipodi:nodetypes="ccccc"
         inkscape:connector-curvature="0"
         id="path1976"
         d="m 156.77314,135.213 1.18888,0.0334 c 0.11136,6.77083 -0.98672,19.35175 -1.34309,22.98216 l -1.23275,0.0139 z"
         style="opacity:0.98;fill:#000000;fill-opacity:1;fill-rule:evenodd;stroke:#000000;stroke-width:0.265;stroke-miterlimit:4;stroke-dasharray:none;stroke-opacity:1" /></g></g></g></svg>
